<svg width="234" height="44" viewBox="0 0 234 44" fill="none" xmlns="http://www.w3.org/2000/svg">
<path d="M0 30.9577L1.93012 38.1611H7.52314L18.5541 19.0549L23.6956 22.0234L14.3785 38.1611H40L33.6869 27.2264L31.0141 31.8558H22.9191L29.2656 20.8632L20.5913 5.83894L4.56668 33.5943L0 30.9577Z" fill="#00B4F1"/>
<path d="M49.0778 34.5V9.3H60.5258C63.2618 9.3 65.6738 9.828 67.7618 10.884C69.8498 11.916 71.4818 13.368 72.6578 15.24C73.8338 17.112 74.4218 19.332 74.4218 21.9C74.4218 24.444 73.8338 26.664 72.6578 28.56C71.4818 30.432 69.8498 31.896 67.7618 32.952C65.6738 33.984 63.2618 34.5 60.5258 34.5H49.0778ZM54.9098 29.712H60.2378C61.9178 29.712 63.3698 29.4 64.5938 28.776C65.8418 28.128 66.8018 27.216 67.4738 26.04C68.1698 24.864 68.5178 23.484 68.5178 21.9C68.5178 20.292 68.1698 18.912 67.4738 17.76C66.8018 16.584 65.8418 15.684 64.5938 15.06C63.3698 14.412 61.9178 14.088 60.2378 14.088H54.9098V29.712ZM78.82 34.5V9.3H84.652V34.5H78.82ZM90.6325 34.5V9.3H101.541C103.797 9.3 105.741 9.672 107.373 10.416C109.005 11.136 110.265 12.18 111.153 13.548C112.041 14.916 112.485 16.548 112.485 18.444C112.485 20.316 112.041 21.936 111.153 23.304C110.265 24.648 109.005 25.68 107.373 26.4C105.741 27.12 103.797 27.48 101.541 27.48H93.8725L96.4645 24.924V34.5H90.6325ZM106.653 34.5L100.353 25.356H106.581L112.953 34.5H106.653ZM96.4645 25.572L93.8725 22.836H101.217C103.017 22.836 104.361 22.452 105.249 21.684C106.137 20.892 106.581 19.812 106.581 18.444C106.581 17.052 106.137 15.972 105.249 15.204C104.361 14.436 103.017 14.052 101.217 14.052H93.8725L96.4645 11.28V25.572ZM117.105 34.5V9.3H128.013C130.269 9.3 132.213 9.672 133.845 10.416C135.477 11.136 136.737 12.18 137.625 13.548C138.513 14.916 138.957 16.548 138.957 18.444C138.957 20.316 138.513 21.936 137.625 23.304C136.737 24.672 135.477 25.728 133.845 26.472C132.213 27.192 130.269 27.552 128.013 27.552H120.345L122.937 24.924V34.5H117.105ZM122.937 25.572L120.345 22.8H127.689C129.489 22.8 130.833 22.416 131.721 21.648C132.609 20.88 133.053 19.812 133.053 18.444C133.053 17.052 132.609 15.972 131.721 15.204C130.833 14.436 129.489 14.052 127.689 14.052H120.345L122.937 11.28V25.572ZM155.712 34.932C153.72 34.932 151.872 34.608 150.168 33.96C148.488 33.312 147.024 32.4 145.776 31.224C144.552 30.048 143.592 28.668 142.896 27.084C142.224 25.5 141.888 23.772 141.888 21.9C141.888 20.028 142.224 18.3 142.896 16.716C143.592 15.132 144.564 13.752 145.812 12.576C147.06 11.4 148.524 10.488 150.204 9.84C151.884 9.192 153.708 8.868 155.676 8.868C157.668 8.868 159.492 9.192 161.148 9.84C162.828 10.488 164.28 11.4 165.504 12.576C166.752 13.752 167.724 15.132 168.42 16.716C169.116 18.276 169.464 20.004 169.464 21.9C169.464 23.772 169.116 25.512 168.42 27.12C167.724 28.704 166.752 30.084 165.504 31.26C164.28 32.412 162.828 33.312 161.148 33.96C159.492 34.608 157.68 34.932 155.712 34.932ZM155.676 29.964C156.804 29.964 157.836 29.772 158.772 29.388C159.732 29.004 160.572 28.452 161.292 27.732C162.012 27.012 162.564 26.16 162.948 25.176C163.356 24.192 163.56 23.1 163.56 21.9C163.56 20.7 163.356 19.608 162.948 18.624C162.564 17.64 162.012 16.788 161.292 16.068C160.596 15.348 159.768 14.796 158.808 14.412C157.848 14.028 156.804 13.836 155.676 13.836C154.548 13.836 153.504 14.028 152.544 14.412C151.608 14.796 150.78 15.348 150.06 16.068C149.34 16.788 148.776 17.64 148.368 18.624C147.984 19.608 147.792 20.7 147.792 21.9C147.792 23.076 147.984 24.168 148.368 25.176C148.776 26.16 149.328 27.012 150.024 27.732C150.744 28.452 151.584 29.004 152.544 29.388C153.504 29.772 154.548 29.964 155.676 29.964ZM173.847 34.5V9.3H179.679V34.5H173.847ZM185.66 34.5V9.3H190.484L205.352 27.444H203.012V9.3H208.772V34.5H203.984L189.08 16.356H191.42V34.5H185.66ZM219.954 34.5V14.052H211.89V9.3H233.85V14.052H225.786V34.5H219.954Z" fill="#00B4F1"/>
</svg>
