<svg width="19" height="19" viewBox="0 0 19 19" fill="none" xmlns="http://www.w3.org/2000/svg">
<rect width="19" height="19" fill="black"/>
<g id="HP Device Product Page">
<path d="M-759 -10643C-759 -10644.1 -758.105 -10645 -757 -10645H1291C1292.1 -10645 1293 -10644.1 1293 -10643V6301C1293 6302.1 1292.1 6303 1291 6303H-757C-758.105 6303 -759 6302.11 -759 6301V-10643Z" fill="#CF1010"/>
<g id="Desktop - Product Page - HP Device - not done" clip-path="url(#clip0_0_1)">
<rect width="1512" height="13911" transform="translate(-296 -10567)" fill="white"/>
<rect id="Rectangle 5800" x="-320" y="-819" width="1555" height="1346" fill="#F1F6FA"/>
<g id="Group 1171275055">
<path id="Rectangle 5636" d="M256 295C256 303.284 249.284 310 241 310L-66.0001 310C-74.2843 310 -81.0001 303.284 -81.0001 295L-81 -491L256 -491L256 295Z" fill="white"/>
<g id="Group 1171276118">
<ellipse id="Ellipse 846" cx="9.5" cy="9.5" rx="6.5" ry="5.5" fill="#141B4D"/>
<path id="Vector" fill-rule="evenodd" clip-rule="evenodd" d="M9.5 19C10.7476 19 11.9829 18.7543 13.1355 18.2769C14.2881 17.7994 15.3354 17.0997 16.2175 16.2175C17.0997 15.3354 17.7994 14.2881 18.2769 13.1355C18.7543 11.9829 19 10.7476 19 9.5C19 8.25244 18.7543 7.0171 18.2769 5.86451C17.7994 4.71191 17.0997 3.66464 16.2175 2.78249C15.3354 1.90033 14.2881 1.20056 13.1355 0.723144C11.9829 0.245725 10.7476 -1.85901e-08 9.5 0C6.98044 3.75443e-08 4.56408 1.00089 2.78249 2.78249C1.00089 4.56408 0 6.98044 0 9.5C0 12.0196 1.00089 14.4359 2.78249 16.2175C4.56408 17.9991 6.98044 19 9.5 19ZM9.25511 13.3422L14.5329 7.00889L12.9116 5.65778L8.37267 11.1034L6.02406 8.75372L4.5315 10.2463L7.69817 13.4129L8.51517 14.2299L9.25511 13.3422Z" fill="#E2F6FD"/>
</g>
</g>
</g>
</g>
<defs>
<clipPath id="clip0_0_1">
<rect width="1512" height="13911" fill="white" transform="translate(-296 -10567)"/>
</clipPath>
</defs>
</svg>
