<svg width="32" height="32" viewBox="0 0 32 32" fill="none" xmlns="http://www.w3.org/2000/svg">
<g id="arrow">
<circle id="Ellipse 950" cx="16" cy="16" r="15" fill="white" stroke="#141B4D" stroke-width="1.5"/>
<path id="Vector" d="M23 15.944C22.9842 15.7568 22.913 15.5778 22.7785 15.4312L17.7304 10.2381C17.4218 9.92064 16.9233 9.92064 16.6147 10.2381C16.4565 10.4009 16.3853 10.6044 16.3853 10.816C16.3853 11.0276 16.4644 11.2311 16.6147 11.3939L20.3019 15.187L8.79123 15.187C8.35605 15.187 8 15.5533 8 16.001C8 16.4487 8.35605 16.815 8.79123 16.815L20.3019 16.815L16.6068 20.6162C16.2982 20.9337 16.2982 21.4465 16.6068 21.7639C16.7651 21.9267 16.9629 22 17.1686 22C17.3743 22 17.5721 21.9186 17.7304 21.7639L22.7705 16.5789C22.7864 16.5627 22.8022 16.5464 22.8101 16.5382C22.913 16.4161 22.9763 16.2615 23 16.1068C23 16.0499 23 16.001 23 15.944Z" fill="#141B4D"/>
</g>
</svg>
