<svg width="32" height="32" viewBox="0 0 32 32" fill="none" xmlns="http://www.w3.org/2000/svg">
<g id="arrow">
<circle id="Ellipse 950" cx="16" cy="16" r="15" transform="rotate(-180 16 16)" fill="white" stroke="#141B4D" stroke-opacity="0.5" stroke-width="1.5"/>
<path id="Vector" opacity="0.5" d="M8 16.056C8.01583 16.2432 8.08704 16.4222 8.22155 16.5688L13.2696 21.7619C13.5782 22.0794 14.0767 22.0794 14.3853 21.7619C14.5435 21.5991 14.6147 21.3956 14.6147 21.184C14.6147 20.9724 14.5356 20.7689 14.3853 20.6061L10.6981 16.813L22.2088 16.813C22.6439 16.813 23 16.4467 23 15.999C23 15.5513 22.6439 15.185 22.2088 15.185L10.6981 15.185L14.3932 11.3838C14.7018 11.0663 14.7018 10.5535 14.3932 10.2361C14.2349 10.0733 14.0371 10 13.8314 10C13.6257 10 13.4279 10.0814 13.2696 10.2361L8.22946 15.4211C8.21364 15.4373 8.19781 15.4536 8.1899 15.4618C8.08704 15.5839 8.02374 15.7385 8 15.8932C8 15.9501 8 15.999 8 16.056Z" fill="#141B4D"/>
</g>
</svg>
