<svg width="19" height="16" viewBox="0 0 19 16" fill="none" xmlns="http://www.w3.org/2000/svg">
<g id="mute">
<path id="path1249" d="M8.01103 1.3223C6.67211 2.35843 5.3204 3.4045 3.97769 4.44356L2.55348 4.45247C1.73043 4.45781 0.976555 5.10428 0.976563 5.97971V10.6178C0.976555 11.4918 1.72657 12.1385 2.54908 12.1494L3.98211 12.1687C5.32497 13.1758 6.6687 14.1889 8.01103 15.1932C8.80168 15.7396 9.99612 15.222 9.99613 14.195V2.31906C9.99613 1.06533 8.83286 0.639196 8.01103 1.3223ZM8.49262 2.86732V13.6571L4.681 10.7965C4.55433 10.701 4.40125 10.6484 4.24345 10.6461C3.70972 10.6422 2.92626 10.6268 2.48007 10.6176V5.97957C2.91929 5.97987 3.69182 5.97101 4.23905 5.96758C4.40204 5.96605 4.56024 5.91151 4.68981 5.81114L8.49262 2.86732Z" fill="white" stroke="white" stroke-width="0.5"/>
<path id="path1251" d="M12.2935 5.43646C11.9022 5.83752 11.9022 6.48767 12.2935 6.88873L13.5893 8.21663L12.2935 9.54252C11.9022 9.94358 11.9022 10.5937 12.2935 10.9948C12.6848 11.3958 13.3193 11.3958 13.7107 10.9948L15.0065 9.66688L16.3024 10.9948C16.6937 11.3958 17.3282 11.3958 17.7196 10.9948C18.1109 10.5937 18.1109 9.94358 17.7196 9.54252L16.4237 8.21663L17.7196 6.88873C18.1109 6.48767 18.1109 5.83752 17.7196 5.43646C17.2632 4.96877 16.6643 5.06563 16.3024 5.43646L15.0065 6.76436L13.7107 5.43646C13.2696 4.98449 12.6824 5.03787 12.2935 5.43646Z" fill="white"/>
</g>
</svg>
